PathFileType	4	(X/Y/Z)	C:\Users\Basilio\Documents\Thesis Gigler\squatting_fais\c3dfiles\075\SLS_back_pre3\markers_experimental.trc
DataRate	CameraRate	NumFrames	NumMarkers	Units	OrigDataRate	OrigDataStartFrame	OrigNumFrames
200.000000	200.000000	4	61	mm	200.000000	1002	1336
Frame#	Time	FHD			LBHD			C7			T10			CLAV			LSHO			LUUPA			LMUPA			LDUPA			LLEP			LMEP			LRAD			LUL			LRFIN			RSHO			RUPA1			RMUPA			RDUPA			RLEP			RMEP			RRAD			RUL			RUFIN			LASI			RASI			USACR			LSACR			RSACR			LTHI1			LTHI2			LTHI3			LTHI4			LLFC			LMFC			LTIB1			LTIB2			LTIB3			LTIB4			LLMAL			LMMAL			LHEE			LMT1			LMT2			LMT5			RTHI			RTHI2			RTHI3			RTHI4			RLFC			RMFC			RTIB1			RTIB2			RTIB3			RTIB4			RLMAL			RMMAL			RHEE			RMT1			RMT2			RMT5			RBHD			
		X1	Y1	Z1	X2	Y2	Z2	X3	Y3	Z3	X4	Y4	Z4	X5	Y5	Z5	X6	Y6	Z6	X7	Y7	Z7	X8	Y8	Z8	X9	Y9	Z9	X10	Y10	Z10	X11	Y11	Z11	X12	Y12	Z12	X13	Y13	Z13	X14	Y14	Z14	X15	Y15	Z15	X16	Y16	Z16	X17	Y17	Z17	X18	Y18	Z18	X19	Y19	Z19	X20	Y20	Z20	X21	Y21	Z21	X22	Y22	Z22	X23	Y23	Z23	X24	Y24	Z24	X25	Y25	Z25	X26	Y26	Z26	X27	Y27	Z27	X28	Y28	Z28	X29	Y29	Z29	X30	Y30	Z30	X31	Y31	Z31	X32	Y32	Z32	X33	Y33	Z33	X34	Y34	Z34	X35	Y35	Z35	X36	Y36	Z36	X37	Y37	Z37	X38	Y38	Z38	X39	Y39	Z39	X40	Y40	Z40	X41	Y41	Z41	X42	Y42	Z42	X43	Y43	Z43	X44	Y44	Z44	X45	Y45	Z45	X46	Y46	Z46	X47	Y47	Z47	X48	Y48	Z48	X49	Y49	Z49	X50	Y50	Z50	X51	Y51	Z51	X52	Y52	Z52	X53	Y53	Z53	X54	Y54	Z54	X55	Y55	Z55	X56	Y56	Z56	X57	Y57	Z57	X58	Y58	Z58	X59	Y59	Z59	X60	Y60	Z60	X61	Y61	Z61	

1003	5.01	-228.5384521484376	1735.7607421875	-805.9810791015627	-370.6449584960938	1610.102294921875	-867.897399902344	-402.5266418457032	1500.085205078125	-803.3464355468752	-438.3612670898439	1180.173583984375	-792.200378417969	-261.4153137207032	1436.814453125	-805.1717529296877	-301.6934204101563	1480.0947265625	-945.100524902344	-210.5002593994141	1335.827392578125	-1076.943359375	-166.1490783691407	1348.208374023438	-1057.462646484375	-150.9605102539063	1304.32568359375	-1097.590942382813	-71.67512512207033	1265.70654296875	-1097.878784179688	-105.2665481567383	1200.580444335938	-1040.778076171875	nan	nan	nan	96.59519958496097	1313.731689453125	-915.3837890625002	84.29671478271486	1366.558227539063	-818.014343261719	-297.3685607910157	1475.1044921875	-660.5955200195314	-205.6368713378907	1347.957885742188	-519.0816040039064	-160.6600494384766	1356.095092773438	-536.9055786132814	-147.924057006836	1315.193969726563	-493.0327148437501	-81.15306091308595	1284.81982421875	-483.227996826172	-89.39547729492189	1208.357543945313	-522.0120239257814	34.70442199707032	1350.2470703125	-722.6134643554689	87.15353393554689	1334.878540039063	-668.1585693359376	101.8182144165039	1383.026733398438	-774.026306152344	-299.7760925292969	1013.117736816406	-943.1497802734377	-281.9051208496094	992.5439453125002	-692.0258789062501	-444.1556701660157	1077.647338867188	-802.3055419921877	-454.8756713867189	1049.417846679688	-832.1364746093752	-448.9315490722657	1044.83984375	-775.048767089844	-288.5780944824219	790.520446777344	-1038.236083984375	-230.9641113281251	727.6771240234376	-1045.860473632813	-191.0347137451172	744.3499145507814	-1022.538208007813	-239.8788452148438	667.4843750000001	-1044.88916015625	-224.0879364013672	568.6376953125001	-1036.882934570313	-186.6812133789063	544.5438842773439	-915.6489257812502	-219.0147705078126	437.2408142089845	-1008.162414550781	-298.2089538574219	431.5019836425782	-1047.2900390625	-263.3073425292969	407.4356994628907	-1032.595092773438	-300.9111328125001	339.3344421386719	-1000.020751953125	-441.089813232422	251.6450805664063	-1003.402709960938	-394.3024291992189	251.6143493652344	-926.1954345703127	-498.2392578125001	244.0516662597657	-948.5686035156252	-316.7524719238282	136.2236785888672	-948.358337402344	-319.9339599609376	135.7434692382813	-997.5499267578127	-372.6336669921876	131.9761962890625	-1038.531616210938	-351.0028686523438	788.9449462890627	-640.3386230468751	-313.0092163085938	735.2340087890626	-645.8565673828126	-281.9412231445313	741.0145874023439	-658.3669433593751	-343.1506652832032	655.9196777343751	-662.8077392578126	-361.1074523925782	505.1725463867189	-703.4437866210939	-329.1233215332032	505.8321533203126	-829.5376586914065	-309.1256713867188	364.3667907714844	-778.760192871094	-355.4599914550782	282.1753234863282	-724.8882446289064	-318.6845092773438	280.1785278320313	-757.3713989257814	-329.7320556640626	238.4339141845704	-796.411560058594	-392.5299377441407	113.3564834594727	-767.3351440429689	-368.7297973632813	141.7143096923828	-846.4907226562502	-450.2054443359376	97.82639312744143	-824.6433715820315	-246.3860473632813	56.19985198974611	-837.167175292969	-245.9561767578126	55.46511077880861	-794.8408203125002	-283.3203430175782	35.6446876525879	-742.1633911132814	-328.0949401855469	1650.4765625	-716.1176147460939	
1004	5.015	-228.6179504394532	1735.914306640625	-806.1743164062502	-370.4534606933594	1610.010131835938	-868.0391235351565	-402.3302001953126	1499.949096679688	-803.5578613281252	-437.7866821289064	1179.994018554688	-792.5362548828127	-261.7303161621094	1436.782958984375	-805.8155517578127	-301.4946289062501	1479.715454101563	-945.6719360351565	-212.4733276367188	1333.759521484375	-1078.013061523438	-168.1620025634766	1345.390747070313	-1058.77978515625	-153.5790100097657	1301.29296875	-1099.079223632813	-74.95217132568361	1261.75830078125	-1099.761352539063	-109.2672958374024	1196.869018554688	-1042.563232421875	nan	nan	nan	92.57930755615236	1308.473022460938	-916.351257324219	80.22791290283205	1361.137451171875	-818.9168090820315	-297.0354919433594	1474.676025390625	-660.5183105468751	-206.9894409179688	1345.557006835938	-519.0460815429689	-161.7324371337891	1353.097900390625	-536.5333862304689	-149.7876129150391	1312.114624023438	-492.6915588378907	-83.43553161621095	1280.66796875	-482.9158325195314	-92.7388153076172	1204.286987304688	-521.7860717773439	31.43365669250489	1345.265380859375	-722.8070678710939	84.07805633544923	1329.014282226563	-668.9725341796876	98.67898559570315	1377.315795898438	-774.7930908203127	-299.0870361328126	1012.97265625	-943.5311279296877	-281.2047729492188	992.5632324218752	-692.4048461914064	-443.5132446289064	1077.44970703125	-802.6653442382815	-454.2449645996095	1049.161376953125	-832.4893188476565	-448.3317260742189	1044.655639648438	-775.3816528320315	-288.6578369140626	789.9582519531252	-1038.593627929688	-231.5683898925782	727.1824340820314	-1046.38720703125	-191.041259765625	743.5369873046876	-1022.994262695313	-240.0630798339844	666.6842651367189	-1045.098266601563	-224.2926025390626	567.5089111328126	-1037.373779296875	-186.9242095947266	543.7777709960939	-916.0581665039065	-217.9932708740235	436.1267089843751	-1008.787780761719	-296.7237243652344	429.2955627441407	-1048.310180664063	-261.7909545898438	405.8741760253907	-1033.294189453125	-298.6500549316407	337.0470886230469	-1000.845581054688	-437.698699951172	247.8468780517579	-1004.518371582031	-391.1554260253907	248.0442047119141	-927.3936157226565	-494.7790527343751	239.3011627197266	-949.860290527344	-311.8023986816407	133.665512084961	-949.7156372070315	-315.3120117187501	133.5040283203125	-999.2265625000002	-367.4396362304688	129.1335601806641	-1040.11669921875	-350.3089599609376	789.042907714844	-640.4252929687501	-312.3596496582032	735.1885375976564	-646.1134033203126	-281.4694824218751	741.0317993164064	-658.6379394531251	-342.5594177246094	655.9818725585939	-662.9845581054689	-360.6120910644532	505.1927490234376	-703.5122070312501	-328.7779846191407	505.6868591308595	-829.4549560546877	-308.9096984863282	364.2747192382813	-778.8455810546877	-355.2946777343751	282.1678161621094	-724.9296875000001	-318.6483459472657	280.0754089355469	-757.4347534179689	-329.6383361816407	238.3459014892579	-796.453552246094	-392.5357055664064	113.3400802612305	-767.3032836914064	-368.7792968750001	141.7514343261719	-846.4722900390627	-450.187469482422	97.80091857910159	-824.6396484375002	-246.3915405273438	56.18592071533205	-837.117126464844	-245.9281616210938	55.38420486450197	-794.8140258789065	-283.3054199218751	35.65880584716798	-742.1399536132814	-328.0641479492188	1650.377685546875	-716.1251220703126	
1005	5.02	-228.8418731689454	1735.987182617188	-806.3255004882815	-370.2005920410157	1609.984375	-868.1802978515627	-402.0834045410157	1499.80615234375	-803.7364501953127	-437.356170654297	1179.7724609375	-792.8743286132815	-261.4707946777344	1436.669067382813	-806.1523437500002	-301.1179504394532	1479.34228515625	-946.3616333007815	-214.8922882080079	1331.790405273438	-1079.11279296875	-169.5574645996094	1342.614868164063	-1059.908569335938	-156.4414215087891	1298.4990234375	-1100.498413085938	-78.36802673339845	1257.762817382813	-1101.357421875	-113.246940612793	1193.319580078125	-1044.243286132813	nan	nan	nan	88.66088867187501	1303.137329101563	-917.097839355469	76.54644012451173	1355.771362304688	-819.5917968750002	-296.6395874023438	1474.255004882813	-660.4815673828126	-208.1653442382813	1343.320068359375	-518.7616577148439	-162.7491760253907	1350.283813476563	-536.0705566406251	-151.6844024658203	1308.873901367188	-492.4442138671876	-85.63408660888673	1276.568237304688	-482.8522949218751	-96.22770690917972	1200.285888671875	-521.7772216796876	28.21650505065919	1340.5751953125	-723.3045654296876	81.0243377685547	1323.271362304688	-669.8804931640626	95.35059356689455	1371.622924804688	-775.846130371094	-298.5353088378907	1012.800415039063	-943.8958740234377	-280.5355834960938	992.508483886719	-692.6842041015626	-442.861297607422	1077.258056640625	-803.0593261718752	-453.5520629882814	1048.9560546875	-832.8088378906252	-447.7451171875001	1044.51416015625	-775.674255371094	-288.5747070312501	789.325622558594	-1038.836059570313	-232.0583648681641	726.4336547851564	-1046.988403320313	-191.7974548339844	742.9597167968751	-1023.866638183594	-240.8988189697266	666.0455322265626	-1045.37060546875	-224.8482360839844	566.6740112304689	-1037.924438476563	-187.1161193847657	543.0872192382814	-916.4742431640627	-217.0897827148438	435.2225341796876	-1009.229309082031	-295.4384765625001	427.3378906250001	-1049.086059570313	-260.2720947265626	404.1914367675782	-1033.975708007813	-296.9765625000001	334.8802795410157	-1002.162658691406	-434.1537475585939	244.1114196777344	-1005.895446777344	-388.149139404297	244.6111907958985	-928.648376464844	-491.4221801757814	234.5977325439454	-951.3079833984377	-307.2212219238282	131.4926452636719	-951.1890258789065	-310.4030456542969	131.2362823486328	-1000.52685546875	-362.3932495117188	126.4017486572266	-1041.631103515625	-349.5638122558594	789.1250000000002	-640.6336059570314	-311.7111816406251	735.2503662109376	-646.2784423828126	-280.7088623046876	741.0335693359376	-658.7788085937501	-341.9674072265626	656.0396118164064	-663.0963134765626	-360.3054504394532	505.1623840332032	-703.6691284179689	-328.5547485351563	505.693084716797	-829.5711059570315	-308.6321716308594	364.2122497558594	-778.851989746094	-355.1786499023438	282.1763916015626	-724.9150390625001	-318.5096435546876	279.9899291992188	-757.4538574218751	-329.4927368164063	238.2796478271485	-796.3838500976565	-392.5547790527345	113.311019897461	-767.3138427734376	-368.5874023437501	141.6645050048828	-846.4292602539065	-450.1739501953126	97.79118347167972	-824.6303710937502	-246.4206695556641	56.25996017456056	-837.127136230469	-246.0148162841797	55.3959312438965	-794.7966918945315	-283.3063049316407	35.62151718139649	-742.1443481445314	-327.8590698242188	1650.248901367188	-716.5200195312501	
1006	5.025	-228.9716949462891	1736.027709960938	-806.440612792969	-370.1631774902344	1609.880859375	-868.3350830078127	-401.8154602050782	1499.71533203125	-803.9566040039065	-436.8941040039064	1179.583862304688	-793.1027832031252	-261.2016906738282	1436.492797851563	-806.4321289062502	-300.8782043457032	1478.960571289063	-947.0828247070315	-216.5240173339844	1329.722778320313	-1080.0361328125	-171.7898254394532	1340.042602539063	-1061.367309570313	-159.9629974365235	1295.823974609375	-1102.270385742188	-81.92581939697267	1253.83154296875	-1103.129760742188	-116.8411254882813	1189.758544921875	-1045.359497070313	nan	nan	nan	84.81569671630861	1297.839599609375	-918.1651611328127	73.06835937500001	1350.282104492188	-820.453308105469	-296.2135314941407	1473.860595703125	-660.4666137695314	-209.4902801513672	1341.04150390625	-518.9259643554689	-163.8477935791016	1347.287963867188	-536.0089111328126	-153.5493621826172	1305.682861328125	-492.2872924804689	-88.01079559326173	1272.370971679688	-482.6617736816407	-99.62759399414065	1196.24951171875	-521.9346313476564	24.92289733886719	1335.588623046875	-723.5321655273439	77.93557739257814	1317.297607421875	-670.6821289062501	92.25634002685548	1365.86083984375	-776.702087402344	-297.9627990722657	1012.689147949219	-944.1685180664065	-279.8903503417969	992.478210449219	-692.9022827148439	-442.3849487304689	1077.105712890625	-803.3607177734377	-452.9331665039064	1048.77001953125	-833.0855102539065	-447.2298278808595	1044.318359375	-775.9829711914065	-288.6129760742188	788.7956542968752	-1039.117797851563	-232.4307861328126	725.5497436523439	-1047.287963867188	-191.2999114990235	741.7860107421876	-1023.865844726563	-241.4376678466797	665.2542114257814	-1045.59716796875	-225.6368865966797	565.6660156250001	-1038.49365234375	-187.3230438232422	542.3041992187501	-916.9761962890627	-215.9893646240235	434.1900939941407	-1009.755126953125	-294.0989379882813	425.1953430175782	-1050.027587890625	-258.9669799804688	402.522186279297	-1034.552368164063	-294.7837524414063	332.9905395507813	-1003.026611328125	-430.6587524414064	240.2936096191407	-1007.151550292969	-384.9539794921876	241.0047760009766	-929.893005371094	-487.9561157226564	229.9981079101563	-952.7571411132815	-302.5525817871094	129.0278015136719	-952.2437744140627	-305.4613342285157	128.8900604248047	-1001.827758789063	-357.2376403808594	123.559928894043	-1042.9921875	-348.9406738281251	789.1538696289065	-640.8638916015626	-311.1870422363282	735.2144775390626	-646.4365234375001	-280.0610656738282	740.9434204101564	-658.9321289062501	-341.4341430664063	656.0737304687501	-663.2279663085939	-360.0155639648438	505.1522521972657	-703.7714843750001	-328.1050720214844	505.6335754394532	-829.6213989257815	-308.4144287109376	364.1079101562501	-778.8482055664065	-355.1121826171876	282.1547851562501	-724.8733520507814	-318.8932800292969	280.0612182617188	-757.4913940429689	-329.4527587890626	238.219711303711	-796.3818359375002	-392.5569152832032	113.2671737670899	-767.2578125000001	-368.6746520996094	141.7285919189453	-846.413513183594	-450.1774902343751	97.79912567138675	-824.5668945312502	-246.4021759033204	56.28298950195314	-837.1038208007815	-246.0247039794922	55.33302688598634	-794.7851562500002	-283.3254699707032	35.57723617553712	-742.0888061523439	-327.8492736816407	1650.052368164063	-716.6050415039064	
